<svg viewBox="0 0 24 24" fill="none" xmlns="http://www.w3.org/2000/svg">
  <path d="M7 10h10a4 4 0 0 1 3.9 4.9l-.6 2.5a2.5 2.5 0 0 1-4.3 1.1L14.6 17a2 2 0 0 0-1.5-.7h-2.2a2 2 0 0 0-1.5.7L8 18.5a2.5 2.5 0 0 1-4.3-1.1l-.6-2.5A4 4 0 0 1 7 10Z" stroke="currentColor" stroke-width="1.7" stroke-linejoin="round"/>
  <path d="M8.5 13.5h3M10 12v3M15.5 13.5h.01M17.5 15.5h.01" stroke="currentColor" stroke-width="1.7" stroke-linecap="round"/>
  <path d="M9 10 7.8 7.7A2 2 0 0 1 9.6 5h4.8a2 2 0 0 1 1.8 2.7L15 10" stroke="currentColor" stroke-width="1.7" stroke-linecap="round" stroke-linejoin="round"/>
</svg>
